<svg width="20" height="21" viewBox="0 0 20 21" fill="none" xmlns="http://www.w3.org/2000/svg">
<path d="M16.99 4.08997C16.73 3.77997 16.3 3.68997 15.92 3.80997C15.11 4.07997 14.19 4.00997 13.39 3.55997C12.59 3.09997 12.07 2.33997 11.89 1.50997C11.8 1.10997 11.5 0.779975 11.1 0.719975C10.1 0.559975 9.06001 0.559975 8.04001 0.729975C7.64001 0.799975 7.35001 1.11997 7.26001 1.51997C7.08001 2.35997 6.57001 3.11997 5.77001 3.58997C4.97001 4.05997 4.05001 4.11997 3.24001 3.85997C2.86001 3.73997 2.43001 3.82997 2.17001 4.13997C1.52001 4.94997 1.01001 5.84997 0.660013 6.79997C0.520013 7.17997 0.660013 7.59997 0.960013 7.85997C1.59001 8.43997 1.99001 9.26997 2.00001 10.19C2.00001 11.12 1.60001 11.94 0.970013 12.52C0.670013 12.79 0.540013 13.21 0.680013 13.58C0.860013 14.05 1.08001 14.52 1.34001 14.97C1.60001 15.42 1.90001 15.84 2.22001 16.23C2.48001 16.54 2.91001 16.63 3.29001 16.51C4.10001 16.24 5.02001 16.31 5.82001 16.76C6.62001 17.22 7.14001 17.98 7.32001 18.81C7.41001 19.2 7.70001 19.53 8.10001 19.59C9.11001 19.75 10.14 19.75 11.16 19.58C11.56 19.51 11.85 19.19 11.94 18.79C12.12 17.95 12.63 17.19 13.43 16.72C14.23 16.25 15.15 16.19 15.96 16.45C16.35 16.57 16.78 16.48 17.03 16.16C17.68 15.35 18.19 14.45 18.55 13.5C18.69 13.12 18.55 12.7 18.25 12.44C17.61 11.87 17.21 11.04 17.2 10.12C17.2 9.18997 17.6 8.36997 18.23 7.78997C18.53 7.51997 18.66 7.09997 18.52 6.72997C18.34 6.25997 18.12 5.78997 17.86 5.33997C17.61 4.88997 17.31 4.47997 16.99 4.08997Z" stroke="#D4D4D4" stroke-width="1.2" stroke-miterlimit="10" stroke-linecap="round" stroke-linejoin="round"/>
<path d="M9.61002 13.12C11.2448 13.12 12.57 11.7947 12.57 10.16C12.57 8.52519 11.2448 7.19995 9.61002 7.19995C7.97526 7.19995 6.65002 8.52519 6.65002 10.16C6.65002 11.7947 7.97526 13.12 9.61002 13.12Z" stroke="#D4D4D4" stroke-width="1.2" stroke-miterlimit="10" stroke-linecap="round" stroke-linejoin="round"/>
</svg>
